<?xml version="1.0" encoding="utf-8"?>
<!-- Generator: Adobe Illustrator 22.0.1, SVG Export Plug-In . SVG Version: 6.00 Build 0)  -->
<svg version="1.1" xmlns="http://www.w3.org/2000/svg" xmlns:xlink="http://www.w3.org/1999/xlink" x="0px" y="0px"
	 viewBox="0 0 5000 5000" style="enable-background:new 0 0 5000 5000;" xml:space="preserve">
<style type="text/css">
	.st0{display:none;}
	.st1{display:inline;}
	.st2{fill:#FECD2D;stroke:#565656;stroke-width:0;stroke-miterlimit:10;}
	.st3{fill:#565656;stroke:#565656;stroke-width:0;stroke-miterlimit:10;}
</style>
<g id="Слой_1" class="st0">
	<rect class="st1" width="5029" height="5029"/>
</g>
<g id="Слой_2">
	<g>
		<path class="st2" d="M1022.2,3901.8l-23,52l-203.8-115.7v-38.5l203.8-115.7l23,51.8l-162,80.3v6.4L1022.2,3901.8z"/>
		<path class="st3" d="M1312.6,3867.9c0,28.7-10.4,51.7-31.2,68.9c-20.8,17.2-47.4,25.8-79.9,25.8c-21.9,0-44.7-4-68.3-11.9
			c-23.6-7.9-44.5-19.1-62.7-33.5l30.6-49.3c35.2,26.5,69.2,39.7,102.1,39.7c14.4,0,25.7-3.3,34-9.9c8.3-6.6,12.5-15,12.5-25.2
			c0-15.1-20-28.7-60.1-40.8c-3-1.1-5.3-1.9-6.8-2.3c-62.8-17-94.1-45.4-94.1-85c0-28,10.9-50.4,32.6-67.2
			c21.7-16.8,50-25.2,84.8-25.2c34.8,0,67.7,10.2,98.7,30.6l-23.8,47.1c-24.6-16.2-51.2-24.4-79.9-24.4c-15.1,0-27.4,2.7-36.9,8.2
			c-9.5,5.5-14.2,13.7-14.2,24.7c0,9.8,4.9,17,14.7,21.5c6.8,3.4,16.3,6.6,28.6,9.6c12.3,3,23.1,6.1,32.6,9.1
			c9.4,3,18.6,6.4,27.5,10.2c8.9,3.8,18.4,9.1,28.6,15.9C1302.4,3818,1312.6,3839.1,1312.6,3867.9z"/>
		<path class="st3" d="M1629,3958h-57.8v-40.3c-24.9,29.9-58.4,44.8-100.4,44.8c-31.4,0-57.4-8.9-78-26.6
			c-20.6-17.8-30.9-41.5-30.9-71.2c0-29.7,11-51.9,32.9-66.6c21.9-14.7,51.6-22.1,89-22.1h82.2v-11.3c0-40.1-22.3-60.1-66.9-60.1
			c-28,0-57.1,10.2-87.3,30.6l-28.4-39.7c36.7-29.1,78.2-43.7,124.7-43.7c35.5,0,64.5,9,87,26.9c22.5,18,33.7,46.2,33.7,84.8V3958z
			 M1565.5,3845.8v-25.5h-71.4c-45.7,0-68.6,14.4-68.6,43.1c0,14.7,5.7,26,17,33.7c11.3,7.8,27.1,11.6,47.3,11.6
			c20.2,0,37.9-5.7,53-17C1557.9,3880.3,1565.5,3865,1565.5,3845.8z"/>
		<path class="st3" d="M1781,3794.7V3958h-63.5v-301.6h63.5v55c10.2-18.5,24.3-33.1,42.2-43.7c17.9-10.6,37.3-15.9,58.1-15.9
			c34,0,61.5,10.4,82.5,31.2c21,20.8,31.5,50.8,31.5,90.2V3958h-63.5v-165.6c0-55.6-23.1-83.3-69.2-83.3c-21.9,0-41,7.3-57.3,21.8
			C1789.1,3745.5,1781,3766.8,1781,3794.7z"/>
		<path class="st3" d="M2328.1,3958h-57.8v-40.3c-24.9,29.9-58.4,44.8-100.4,44.8c-31.4,0-57.4-8.9-78-26.6
			c-20.6-17.8-30.9-41.5-30.9-71.2c0-29.7,11-51.9,32.9-66.6c21.9-14.7,51.6-22.1,89-22.1h82.2v-11.3c0-40.1-22.3-60.1-66.9-60.1
			c-28,0-57.1,10.2-87.3,30.6l-28.4-39.7c36.7-29.1,78.2-43.7,124.7-43.7c35.5,0,64.5,9,87,26.9c22.5,18,33.7,46.2,33.7,84.8V3958z
			 M2264.6,3845.8v-25.5h-71.4c-45.7,0-68.6,14.4-68.6,43.1c0,14.7,5.7,26,17,33.7c11.3,7.8,27.1,11.6,47.3,11.6
			c20.2,0,37.9-5.7,53-17C2257.1,3880.3,2264.6,3865,2264.6,3845.8z"/>
		<path class="st3" d="M2578.2,3651.8c40.4,0,75,14,103.8,42c28.7,28,43.1,65.2,43.1,111.7c0,46.5-14.3,84.3-42.8,113.4
			c-28.5,29.1-61.8,43.7-99.8,43.7s-72.1-16.6-102.3-49.9V4068h-63.5v-411.6h63.5v52.7C2505,3670.9,2537.7,3651.8,2578.2,3651.8z
			 M2478.9,3807.8c0,28.7,8.7,52.3,26.1,70.6c17.4,18.3,38.6,27.5,63.5,27.5s46.7-9.1,65.2-27.2c18.5-18.1,27.8-41.7,27.8-70.6
			s-9.1-52.9-27.2-72c-18.1-19.1-39.9-28.6-65.2-28.6c-25.3,0-46.7,9.5-64.1,28.6C2487.6,3755.1,2478.9,3779,2478.9,3807.8z"/>
		<path class="st3" d="M2804.7,3811.2c-8.1-8.3-12.2-18.3-12.2-30.1c0-11.7,4.1-21.6,12.2-29.8c8.1-8.1,18-12.2,29.8-12.2
			c11.7,0,21.7,4.1,30.1,12.2c8.3,8.1,12.5,18.1,12.5,29.8c0,11.7-4.2,21.7-12.5,30.1c-8.3,8.3-18.3,12.5-30.1,12.5
			C2822.7,3823.6,2812.8,3819.5,2804.7,3811.2z M2804.7,3950.1c-8.1-8.3-12.2-18.3-12.2-30.1c0-11.7,4.1-21.6,12.2-29.8
			c8.1-8.1,18-12.2,29.8-12.2c11.7,0,21.7,4.1,30.1,12.2c8.3,8.1,12.5,18.1,12.5,29.8c0,11.7-4.2,21.7-12.5,30.1
			c-8.3,8.3-18.3,12.5-30.1,12.5C2822.7,3962.6,2812.8,3958.4,2804.7,3950.1z"/>
		<path class="st3" d="M2967.7,3596.3c-7.9-7.9-11.9-17.4-11.9-28.4c0-11,4-20.4,11.9-28.3c7.9-7.9,17.4-11.9,28.3-11.9
			c11,0,20.4,4,28.4,11.9c7.9,7.9,11.9,17.4,11.9,28.3c0,11-4,20.4-11.9,28.4c-7.9,7.9-17.4,11.9-28.4,11.9
			C2985.1,3608.2,2975.6,3604.2,2967.7,3596.3z M3027.2,3958h-63.5v-301.6h63.5V3958z"/>
		<path class="st3" d="M3334,3867.9c0,28.7-10.4,51.7-31.2,68.9c-20.8,17.2-47.4,25.8-79.9,25.8c-21.9,0-44.7-4-68.3-11.9
			c-23.6-7.9-44.5-19.1-62.7-33.5l30.6-49.3c35.2,26.5,69.2,39.7,102.1,39.7c14.4,0,25.7-3.3,34-9.9c8.3-6.6,12.5-15,12.5-25.2
			c0-15.1-20-28.7-60.1-40.8c-3-1.1-5.3-1.9-6.8-2.3c-62.8-17-94.1-45.4-94.1-85c0-28,10.9-50.4,32.6-67.2
			c21.7-16.8,50-25.2,84.8-25.2c34.8,0,67.7,10.2,98.7,30.6l-23.8,47.1c-24.6-16.2-51.2-24.4-79.9-24.4c-15.1,0-27.4,2.7-36.9,8.2
			c-9.5,5.5-14.2,13.7-14.2,24.7c0,9.8,4.9,17,14.7,21.5c6.8,3.4,16.3,6.6,28.6,9.6c12.3,3,23.1,6.1,32.6,9.1
			c9.4,3,18.6,6.4,27.5,10.2c8.9,3.8,18.4,9.1,28.6,15.9C3323.8,3818,3334,3839.1,3334,3867.9z"/>
		<path class="st3" d="M3484.2,3707.4v153.1c0,14.4,3.8,25.8,11.3,34.3c7.6,8.5,18.1,12.8,31.8,12.8c13.6,0,26.6-6.6,39.1-19.8
			l26.1,44.8c-22.3,20-47,30.1-74,30.1c-27,0-50.1-9.4-69.2-28.1c-19.1-18.7-28.6-43.9-28.6-75.7v-151.4h-38v-51h38v-94.7h63.5v94.7
			h79.4v51H3484.2z"/>
		<path class="st3" d="M3923.7,3835h-236.4c1.5,21.9,11.5,39.6,30.1,53c18.5,13.4,39.7,20.1,63.5,20.1c37.8,0,66.5-11.9,86.2-35.7
			l36.3,39.7c-32.5,33.6-74.8,50.5-127,50.5c-42.3,0-78.3-14.1-108-42.2c-29.7-28.2-44.5-66-44.5-113.4c0-47.4,15.1-85.1,45.4-113.1
			c30.2-28,65.9-42,106.9-42c41,0,75.9,12.4,104.6,37.1c28.7,24.8,43.1,58.9,43.1,102.3V3835z M3687.2,3785.1h172.9
			c0-25.3-7.9-44.8-23.8-58.4c-15.9-13.6-35.4-20.4-58.7-20.4s-44.1,7.1-62.7,21.3C3696.5,3741.7,3687.2,3760.9,3687.2,3785.1z"/>
		<path class="st2" d="M4203.8,3838.1l-203.8,115.7l-23-52l161.7-79.7v-6.4l-161.7-80l23-51.8l203.8,115.7V3838.1z"/>
	</g>
</g>
<g id="Слой_3">
	<g>
		<polygon class="st2" points="1916.6,1917.6 2500.6,1917.6 2500.6,1637 1636,1637 1636,2500.5 1916.6,2500.5 		"/>
		<polygon class="st2" points="3083.5,3084.5 2499.5,3084.5 2499.5,3364 3363,3364 3363,2499.4 3083.5,2499.4 		"/>
	</g>
</g>
<g id="Слой_4">
	<g>
		<path class="st3" d="M2214.5,2252.6c-19.4,16-29.2,37.2-29.2,63.5c0,26.4,11.9,47.3,35.6,62.9c23.8,15.6,78.6,33.9,164.6,55.1
			c86,21.2,152.7,52.9,200.2,95.3c47.5,42.3,71.3,104.1,71.3,185.3s-30.5,147.1-91.4,197.6s-141,75.8-240.4,75.8
			c-143.4,0-272.6-53.1-387.5-159.4l120.5-147.7c97.6,85.5,187.9,128.3,270.9,128.3c37.2,0,66.3-8,87.5-24
			c21.2-16,31.8-37.6,31.8-64.8s-11.2-48.8-33.7-64.8s-67-32.2-133.5-48.6c-105.4-25-182.5-57.7-231.3-97.8
			c-48.8-40.2-73.2-103.3-73.2-189.2s30.9-152.3,92.7-198.9s138.9-70,231.3-70c60.5,0,121,10.4,181.4,31.1s113.2,50.1,158.1,88.1
			L2537.9,2318c-78.6-59.6-159.8-89.4-243.6-89.4C2260.5,2228.6,2234,2236.6,2214.5,2252.6z"/>
		<path class="st3" d="M2826.2,2191.7c-22-22-33-49-33-81s11-59,33-81s49-33.1,81-33.1s59,11,81,33.1s33,49,33,81s-11,59-33,81
			s-49,33-81,33S2848.3,2213.7,2826.2,2191.7z M3004.4,2977.7H2810v-697.3h194.4V2977.7z"/>
	</g>
</g>
<g id="Слой_5">
</g>
</svg>
